<svg width="40" height="40" viewBox="0 0 40 40" fill="none" xmlns="http://www.w3.org/2000/svg">
<path d="M36.0547 11.0786C35.5311 9.86629 34.7761 8.76766 33.832 7.84427C32.8872 6.91812 31.7733 6.18212 30.5508 5.6763C29.2831 5.14971 27.9235 4.88017 26.5508 4.88333C24.625 4.88333 22.7461 5.41067 21.1133 6.40677C20.7227 6.64505 20.3516 6.90677 20 7.19192C19.6484 6.90677 19.2773 6.64505 18.8867 6.40677C17.2539 5.41067 15.375 4.88333 13.4492 4.88333C12.0625 4.88333 10.7187 5.14895 9.44922 5.6763C8.22266 6.18411 7.11719 6.91458 6.16797 7.84427C5.22264 8.76662 4.46749 9.8655 3.94531 11.0786C3.40234 12.3404 3.125 13.6802 3.125 15.0591C3.125 16.3599 3.39063 17.7154 3.91797 19.0943C4.35938 20.2466 4.99219 21.4419 5.80078 22.649C7.08203 24.5591 8.84375 26.5513 11.0312 28.5708C14.6562 31.9185 18.2461 34.231 18.3984 34.3247L19.3242 34.9185C19.7344 35.1802 20.2617 35.1802 20.6719 34.9185L21.5977 34.3247C21.75 34.2271 25.3359 31.9185 28.9648 28.5708C31.1523 26.5513 32.9141 24.5591 34.1953 22.649C35.0039 21.4419 35.6406 20.2466 36.0781 19.0943C36.6055 17.7154 36.8711 16.3599 36.8711 15.0591C36.875 13.6802 36.5977 12.3404 36.0547 11.0786V11.0786ZM20 31.8286C20 31.8286 6.09375 22.9185 6.09375 15.0591C6.09375 11.0786 9.38672 7.85208 13.4492 7.85208C16.3047 7.85208 18.7812 9.44583 20 11.774C21.2188 9.44583 23.6953 7.85208 26.5508 7.85208C30.6133 7.85208 33.9062 11.0786 33.9062 15.0591C33.9062 22.9185 20 31.8286 20 31.8286Z" fill="#722ED1"/>
</svg>
