<svg width="40" height="40" viewBox="0 0 40 40" fill="none" xmlns="http://www.w3.org/2000/svg">
<path fill-rule="evenodd" clip-rule="evenodd" d="M11.8438 9.84333C13.2781 9.84333 14.5268 10.6611 15.173 11.8682C15.2149 11.9464 15.3139 11.9757 15.3905 11.9308C16.088 11.5226 16.8484 11.215 17.6532 11.0274C17.7458 11.0058 17.7976 10.9056 17.7572 10.8195C16.6965 8.55931 14.4472 7 11.8438 7C8.21943 7 5.28131 10.0221 5.28131 13.7501C5.28131 15.6757 6.06519 17.4129 7.32263 18.6427C7.39745 18.7158 7.3802 18.842 7.28803 18.8916C4.14498 20.5825 2 23.9683 2 27.8695C2 27.9909 2.00208 28.1119 2.0062 28.2323C2.00894 28.3123 2.07501 28.3752 2.15506 28.3752H4.62077C4.70754 28.3752 4.77607 28.3018 4.77214 28.2151C4.76693 28.1006 4.7643 27.9853 4.7643 27.8695C4.7643 24.1038 7.54322 21.0058 11.1067 20.6267C11.1925 20.6176 11.255 20.5398 11.2445 20.4543C11.2012 20.1007 11.179 19.7405 11.179 19.3748C11.179 18.8306 11.2283 18.2982 11.3228 17.7821C11.3384 17.6967 11.28 17.6151 11.1945 17.6C9.40613 17.2831 8.04561 15.68 8.04561 13.7501C8.04561 11.5924 9.74611 9.84333 11.8438 9.84333Z" fill="#2F54EB"/>
<path fill-rule="evenodd" clip-rule="evenodd" d="M30.9543 13.7501C30.9543 15.68 29.5939 17.283 27.8056 17.5999C27.7201 17.6151 27.6617 17.6967 27.6773 17.7821C27.7717 18.2982 27.8211 18.8306 27.8211 19.3748C27.8211 19.7405 27.7988 20.1007 27.7556 20.4543C27.7451 20.5398 27.8076 20.6176 27.8933 20.6267C31.4568 21.0058 34.2357 24.1039 34.2357 27.8695C34.2357 27.9853 34.2331 28.1006 34.2278 28.2151C34.2239 28.3018 34.2924 28.3752 34.3792 28.3752H36.8449C36.925 28.3752 36.991 28.3123 36.9938 28.2323C36.9979 28.1119 37 27.9909 37 27.8695C37 23.9683 34.855 20.5824 31.7119 18.8916C31.6197 18.842 31.6025 18.7158 31.6773 18.6427C32.9347 17.4129 33.7186 15.6757 33.7186 13.7501C33.7186 10.0221 30.7805 7 27.1562 7C24.5528 7 22.3034 8.5593 21.2428 10.8195C21.2023 10.9056 21.2541 11.0058 21.3468 11.0274C22.1515 11.215 22.912 11.5225 23.6095 11.9308C23.6861 11.9756 23.785 11.9464 23.8269 11.8681C24.4732 10.6611 25.7218 9.84333 27.1562 9.84333C29.2538 9.84333 30.9543 11.5924 30.9543 13.7501Z" fill="#2F54EB"/>
<path fill-rule="evenodd" clip-rule="evenodd" d="M19.5 23.2816C21.5977 23.2816 23.2982 21.5325 23.2982 19.3748C23.2982 17.2172 21.5977 15.4681 19.5 15.4681C17.4024 15.4681 15.7019 17.2172 15.7019 19.3748C15.7019 21.5325 17.4024 23.2816 19.5 23.2816ZM26.0625 19.3748C26.0625 21.3043 25.2755 23.0446 24.0136 24.2748C23.9386 24.348 23.9558 24.4744 24.0482 24.524C27.1953 26.2135 29.3437 29.6016 29.3437 33.5059C29.3437 33.6233 29.3417 33.7403 29.3379 33.8568C29.3352 33.9369 29.2691 33.9999 29.189 33.9999H26.7234C26.6367 33.9999 26.5682 33.9266 26.572 33.84C26.5769 33.7293 26.5794 33.6179 26.5794 33.5059C26.5794 29.4843 23.4098 26.2241 19.5 26.2241C15.5901 26.2241 12.4206 29.4843 12.4206 33.5059C12.4206 33.6179 12.423 33.7293 12.4279 33.84C12.4317 33.9266 12.3632 33.9999 12.2765 33.9999H9.81092C9.7308 33.9999 9.6647 33.9369 9.66205 33.8568C9.65819 33.7403 9.65625 33.6233 9.65625 33.5059C9.65625 29.6016 11.8047 26.2134 14.9518 24.524C15.0442 24.4744 15.0614 24.3479 14.9864 24.2747C13.7246 23.0446 12.9376 21.3042 12.9376 19.3748C12.9376 15.6469 15.8757 12.6248 19.5 12.6248C23.1244 12.6248 26.0625 15.6469 26.0625 19.3748Z" fill="#2F54EB"/>
</svg>
