<svg width="40" height="40" viewBox="0 0 40 40" fill="none" xmlns="http://www.w3.org/2000/svg">
<path d="M35.141 10.8006L27.5394 15.4842L20.2504 5.76154C20.221 5.72241 20.183 5.69064 20.1393 5.66877C20.0955 5.64689 20.0473 5.6355 19.9984 5.6355C19.9495 5.6355 19.9013 5.64689 19.8575 5.66877C19.8138 5.69064 19.7758 5.72241 19.7465 5.76154L12.4613 15.4842L4.85583 10.8006C4.63317 10.6639 4.34411 10.8475 4.37927 11.1092L7.36364 33.7889C7.40661 34.0975 7.67224 34.3358 7.98864 34.3358H32.016C32.3285 34.3358 32.598 34.1014 32.6371 33.7889L35.6215 11.1092C35.6527 10.8475 35.3675 10.6639 35.141 10.8006ZM30.2191 31.6639H9.7777L7.67614 15.6717L13.1371 19.035L20.0004 9.87873L26.8636 19.035L32.3246 15.6717L30.2191 31.6639ZM20.0004 19.8826C17.5746 19.8826 15.6019 21.8553 15.6019 24.2811C15.6019 26.7069 17.5746 28.6795 20.0004 28.6795C22.4261 28.6795 24.3988 26.7069 24.3988 24.2811C24.3988 21.8553 22.4261 19.8826 20.0004 19.8826ZM20.0004 26.1678C18.9613 26.1678 18.1175 25.324 18.1175 24.2811C18.1175 23.242 18.9613 22.3944 20.0004 22.3944C21.0394 22.3944 21.8832 23.2381 21.8832 24.2811C21.8832 25.3201 21.0394 26.1678 20.0004 26.1678Z" fill="#FA8C16"/>
</svg>
